<?xml version="1.0" encoding="UTF-8" standalone="no"?>
<svg
   xmlns:dc="http://purl.org/dc/elements/1.1/"
   xmlns:cc="http://creativecommons.org/ns#"
   xmlns:rdf="http://www.w3.org/1999/02/22-rdf-syntax-ns#"
   xmlns:svg="http://www.w3.org/2000/svg"
   xmlns="http://www.w3.org/2000/svg"
   xmlns:sodipodi="http://sodipodi.sourceforge.net/DTD/sodipodi-0.dtd"
   xmlns:inkscape="http://www.inkscape.org/namespaces/inkscape"
   version="1.1"
   id="ludo-svg-node-iy4wkpwh"
   width="45"
   height="45"
   viewBox="0 0 45 45"
   style="-webkit-tap-highlight-color: rgba(0, 0, 0, 0); width: 45px; height: 45px;"
   inkscape:version="0.91 r13725"
   sodipodi:docname="bk.svg">
  <metadata
     id="metadata23">
    <rdf:RDF>
      <cc:Work
         rdf:about="">
        <dc:format>image/svg+xml</dc:format>
        <dc:type
           rdf:resource="http://purl.org/dc/dcmitype/StillImage" />
      </cc:Work>
    </rdf:RDF>
  </metadata>
  <defs
     id="defs21" />
  <sodipodi:namedview
     pagecolor="#ffffff"
     bordercolor="#666666"
     borderopacity="1"
     objecttolerance="10"
     gridtolerance="10"
     guidetolerance="10"
     inkscape:pageopacity="0"
     inkscape:pageshadow="2"
     inkscape:window-width="847"
     inkscape:window-height="480"
     id="namedview19"
     showgrid="false"
     inkscape:zoom="5.2444444"
     inkscape:cx="21.355931"
     inkscape:cy="22.5"
     inkscape:window-x="68"
     inkscape:window-y="46"
     inkscape:window-maximized="0"
     inkscape:current-layer="ludo-svg-node-iy4wkpwh" />
  <path
     inkscape:connector-curvature="0"
     style="fill:#000000;stroke-width:0"
     fill-rule="even-odd"
     d="m 22.500087,38.891602 10.744629,0 -0.263672,-1.604004 -10.480957,0 -10.480957,0 -0.263672,1.604004 10.744629,0 m 0,-20.236817 q -0.549316,-1.318359 -1.362305,-2.438964 0.681153,-1.054688 1.362305,-1.428223 0.65918,0.373535 1.362305,1.428223 -0.834961,1.120605 -1.362305,2.438964 m -2.131348,9.975586 q -3.383789,0.2417 -6.657714,1.274414 -2.702637,-2.373046 -4.3945324,-4.691162 -1.6918942,-2.318115 -1.6918942,-4.42749 0,-1.955566 1.6149902,-3.493652 1.6149904,-1.538086 3.2629394,-1.538086 1.472168,0 2.955323,1.373291 1.483154,1.373291 2.252197,2.867432 0.65918,1.186523 1.647949,3.845214 0.98877,2.658692 1.010742,4.790039 m -7.690429,4.768067 -0.571289,3.427734 3.186035,-1.845703 -2.614746,-1.582031 m 9.821777,-19.929199 q -1.032715,0 -2.988281,2.658691 -0.681153,-0.791016 -1.098633,-1.208496 2.043457,-3.076172 4.086914,-3.076172 2.021484,0 4.086914,3.076172 -0.439453,0.41748 -1.098633,1.208496 -1.977539,-2.658691 -2.988281,-2.658691 m 0,17.028808 q -0.02197,-2.768554 -0.922852,-5.877685 -0.900878,-3.109131 -1.845703,-4.976807 -0.175781,-0.307617 -0.307617,-0.593262 -0.131836,-0.285644 -0.263672,-0.505371 -0.615234,-0.944824 -1.054687,-1.516113 -1.120606,-1.384277 -2.636719,-2.307129 -1.516113,-0.922852 -2.944336,-0.922852 -2.263184,0 -4.5703126,2.043458 -2.307129,2.043457 -2.307129,5.031738 0,2.636719 2.175293,5.592041 2.1752932,2.955322 5.4711916,5.701904 4.416504,-1.625976 9.206543,-1.669922 m 0,10.019531 -12.6562504,0 1.3403324,-8.020019 Q 4.0430554,26.345215 4.0210824,20.742188 q -0.02197,-3.493653 2.746582,-6.031494 2.7685552,-2.537842 5.8666996,-2.537842 1.713868,0 3.482666,1.032715 1.768799,1.032715 3.131104,2.614746 1.340332,1.625976 2.164307,3.614502 0.823974,1.988525 1.087646,3.306885 0.263672,-1.31836 1.07666,-3.306885 0.812988,-1.988526 2.175293,-3.614502 1.340332,-1.582031 3.120117,-2.614746 1.779785,-1.032715 3.493653,-1.032715 3.076172,0 5.844726,2.537842 2.768555,2.537841 2.768555,6.031494 -0.04395,5.603027 -7.163086,11.755371 l 1.340332,8.020019 -12.65625,0 m 2.131348,-11.887207 q 0,-2.131347 0.988769,-4.790039 0.98877,-2.658691 1.669922,-3.845214 0.74707,-1.494141 2.230225,-2.867432 1.483154,-1.373291 2.977295,-1.373291 1.625976,0 3.240966,1.538086 1.614991,1.538086 1.636963,3.493652 0,2.109375 -1.691894,4.42749 -1.691895,2.318116 -4.394532,4.691162 -3.295898,-1.032714 -6.657714,-1.274414 m 7.690429,4.768067 -2.614746,1.582031 3.186035,1.845703 -0.571289,-3.427734 m -9.821777,-2.900391 q 4.768066,0.04395 9.206543,1.669922 3.295898,-2.746582 5.471191,-5.701904 2.175293,-2.955322 2.175293,-5.592041 0,-2.988281 -2.318115,-5.031738 -2.318115,-2.043458 -4.559326,-2.043458 -1.450195,0 -2.966309,0.922852 -1.516113,0.922852 -2.614746,2.307129 -0.461426,0.571289 -1.054687,1.516113 -0.131836,0.219727 -0.274658,0.505371 -0.142823,0.285645 -0.296631,0.593262 -0.966797,1.867676 -1.867676,4.976807 -0.900879,3.109131 -0.900879,5.877685 m -3.054199,3.493653 3.054199,1.889648 3.054199,-1.845703 -3.054199,-1.889649 -3.054199,1.845704 m 2.021484,-27.4218762 0,-2.087402 2.06543,0 0,2.087402 2.351074,0 0,2.087403 -2.351074,0 0,3.3618162 q -1.054688,-0.351562 -2.06543,0 l 0,-3.3618162 -2.351074,0 0,-2.087403 2.351074,0 z"
     id="ludo-svg-node-iy4wkpwj" />
  <path
     style="opacity:1;fill:#ffffff;fill-opacity:1;fill-rule:nonzero;stroke:none;stroke-width:5;stroke-miterlimit:4;stroke-dasharray:none;stroke-opacity:1"
     d="M 10.844736,29.717161 C 7.2996555,26.138224 5.8300149,23.596538 5.8006679,20.993644 c -0.021923,-1.944461 0.4405349,-3.105143 1.828289,-4.588657 2.7576051,-2.947888 5.6745991,-3.243809 8.7783251,-0.890537 2.833927,2.148708 5.348006,7.94896 5.949448,13.726016 l 0.12407,1.191738 -0.890717,0 c -1.381803,0 -4.701931,0.541905 -6.483831,1.058279 -0.886608,0.256929 -1.708817,0.467144 -1.82713,0.467144 -0.118313,0 -1.213787,-1.008209 -2.434386,-2.240466 z m 7.467851,-0.738968 2.102048,-0.322708 -0.107842,-1.286339 c -0.131212,-1.565095 -1.001107,-4.244642 -2.145491,-6.608783 -0.976553,-2.017425 -2.671429,-3.988795 -3.969668,-4.617262 -1.05613,-0.511264 -2.426343,-0.510418 -3.485169,0.0021 -1.0131106,0.490439 -2.6284859,2.228376 -2.9352877,3.157995 -0.4052362,1.227878 -0.1432592,3.061967 0.654104,4.579352 0.7245124,1.37875 3.0822587,4.240809 4.4771167,5.434756 l 0.794939,0.680438 1.256601,-0.348445 c 0.691131,-0.191645 2.202523,-0.493664 3.358649,-0.671154 z"
     id="path4133"
     inkscape:connector-curvature="0" />
  <path
     style="opacity:1;fill:#ffffff;fill-opacity:1;fill-rule:nonzero;stroke:none;stroke-width:5;stroke-miterlimit:4;stroke-dasharray:none;stroke-opacity:1"
     d="m 22.395845,21.851695 c -0.06073,-0.157309 -0.318377,-0.849492 -0.572549,-1.538183 -0.571099,-1.547422 -1.172449,-2.756821 -1.761939,-3.543507 l -0.450169,-0.600757 0.755372,-0.948707 c 1.671787,-2.099676 2.627129,-2.069419 4.375906,0.138592 l 0.580077,0.732407 -0.733236,1.211645 c -0.658995,1.088963 -1.35781,2.663353 -1.891969,4.262493 -0.133642,0.400093 -0.224264,0.486063 -0.301493,0.286017 z m 0.497239,-3.861229 c 0.171145,-0.340837 0.491153,-0.891259 0.711127,-1.223161 l 0.399954,-0.603457 -0.600226,-0.683619 c -0.752797,-0.857388 -1.168392,-0.861441 -1.811968,-0.01767 l -0.507944,0.665949 0.641249,1.240126 c 0.352687,0.682069 0.68971,1.240443 0.748941,1.24083 0.05923,3.82e-4 0.247721,-0.278161 0.418867,-0.618998 z"
     id="path4135"
     inkscape:connector-curvature="0" />
  <path
     style="opacity:1;fill:#ffffff;fill-opacity:1;fill-rule:nonzero;stroke:none;stroke-width:5;stroke-miterlimit:4;stroke-dasharray:none;stroke-opacity:1"
     d="m 30.661016,31.738558 c -1.005848,-0.41124 -4.500377,-1.101093 -6.21545,-1.226987 l -1.793024,-0.131616 0,-0.944983 c 0,-2.321212 1.420373,-7.257921 2.922462,-10.157429 1.603198,-3.094682 4.501266,-5.336263 6.901462,-5.338103 2.188888,-0.0017 4.992381,1.880548 6.104827,4.098696 1.764447,3.518195 -2.6e-5,7.59271 -5.554042,12.825376 -1.1741,1.106168 -1.503234,1.227883 -2.366235,0.875046 z m 2.601107,-3.64216 c 3.05113,-3.142798 4.120123,-4.997322 4.139035,-7.180532 0.009,-1.041575 -0.08464,-1.43224 -0.546615,-2.279806 -1.325191,-2.431295 -4.000944,-3.519962 -6.124644,-2.491897 -0.447827,0.21679 -1.291899,0.910101 -1.875714,1.540691 -1.775086,1.917304 -3.922877,6.87479 -4.214309,9.727376 l -0.129777,1.270281 1.12101,0.13032 c 1.457491,0.169438 3.56675,0.591979 4.648551,0.931229 0.471928,0.147996 0.909119,0.277567 0.971536,0.287936 0.06242,0.01037 0.967334,-0.86065 2.010927,-1.935598 z"
     id="path4137"
     inkscape:connector-curvature="0" />
  <path
     style="opacity:1;fill:#ffffff;fill-opacity:1;fill-rule:nonzero;stroke:none;stroke-width:5;stroke-miterlimit:4;stroke-dasharray:none;stroke-opacity:1"
     d="m 20.996936,34.850871 -1.369589,-0.892606 1.388656,-0.809641 c 0.763761,-0.445302 1.443838,-0.809641 1.511283,-0.809641 0.06744,0 0.72486,0.374781 1.460924,0.832847 0.980968,0.610474 1.274061,0.882243 1.097713,1.017851 -0.360666,0.277346 -2.567964,1.5836 -2.649002,1.56765 -0.03872,-0.0076 -0.686711,-0.415527 -1.439985,-0.90646 z"
     id="path4139"
     inkscape:connector-curvature="0" />
  <path
     style="opacity:1;fill:#ffffff;fill-opacity:1;fill-rule:nonzero;stroke:none;stroke-width:5;stroke-miterlimit:4;stroke-dasharray:none;stroke-opacity:1"
     d="m 12.355931,36.192562 c 0,-0.466577 0.356961,-2.367319 0.464845,-2.475203 0.04444,-0.04444 0.557624,0.204407 1.140413,0.552989 1.204209,0.720268 1.204545,0.719159 -0.508859,1.677989 -1.000432,0.559846 -1.096399,0.581223 -1.096399,0.244225 z"
     id="path4141"
     inkscape:connector-curvature="0" />
  <path
     style="opacity:1;fill:#ffffff;fill-opacity:1;fill-rule:nonzero;stroke:none;stroke-width:5;stroke-miterlimit:4;stroke-dasharray:none;stroke-opacity:1"
     d="m 11.960135,38.106992 0.116205,-0.715043 10.436406,-0.0493 c 9.849472,-0.04653 10.436553,-0.03044 10.439008,0.286017 0.0015,0.184423 0.05434,0.528376 0.11758,0.76434 l 0.114973,0.429025 -10.670188,0 -10.670189,0 0.116205,-0.715042 z"
     id="path4143"
     inkscape:connector-curvature="0" />
  <path
     style="opacity:1;fill:#ffffff;fill-opacity:1;fill-rule:nonzero;stroke:none;stroke-width:5;stroke-miterlimit:4;stroke-dasharray:none;stroke-opacity:1"
     d="m 31.284669,35.810761 c -0.653283,-0.388821 -1.189564,-0.758475 -1.191737,-0.821454 -0.0047,-0.136551 1.860841,-1.315578 2.081612,-1.315578 0.08439,0 0.212198,0.450477 0.284009,1.001059 0.07181,0.550583 0.177972,1.194121 0.235914,1.430085 0.139919,0.569811 -0.01126,0.538273 -1.409798,-0.294112 z"
     id="path4145"
     inkscape:connector-curvature="0" />
</svg>
