<?xml version="1.0" encoding="UTF-8" standalone="no"?>
<svg
   xmlns:dc="http://purl.org/dc/elements/1.1/"
   xmlns:cc="http://creativecommons.org/ns#"
   xmlns:rdf="http://www.w3.org/1999/02/22-rdf-syntax-ns#"
   xmlns:svg="http://www.w3.org/2000/svg"
   xmlns="http://www.w3.org/2000/svg"
   xmlns:sodipodi="http://sodipodi.sourceforge.net/DTD/sodipodi-0.dtd"
   xmlns:inkscape="http://www.inkscape.org/namespaces/inkscape"
   version="1.1"
   id="ludo-svg-node-iy4wkpw9"
   width="45"
   height="45"
   viewBox="0 0 45 45"
   style="-webkit-tap-highlight-color: rgba(0, 0, 0, 0); width: 45px; height: 45px;"
   inkscape:version="0.91 r13725"
   sodipodi:docname="bq.svg">
  <metadata
     id="metadata15">
    <rdf:RDF>
      <cc:Work
         rdf:about="">
        <dc:format>image/svg+xml</dc:format>
        <dc:type
           rdf:resource="http://purl.org/dc/dcmitype/StillImage" />
      </cc:Work>
    </rdf:RDF>
  </metadata>
  <defs
     id="defs13" />
  <sodipodi:namedview
     pagecolor="#ffffff"
     bordercolor="#666666"
     borderopacity="1"
     objecttolerance="10"
     gridtolerance="10"
     guidetolerance="10"
     inkscape:pageopacity="0"
     inkscape:pageshadow="2"
     inkscape:window-width="699"
     inkscape:window-height="480"
     id="namedview11"
     showgrid="false"
     inkscape:zoom="5.2444444"
     inkscape:cx="22.5"
     inkscape:cy="22.5"
     inkscape:window-x="0"
     inkscape:window-y="0"
     inkscape:window-maximized="0"
     inkscape:current-layer="ludo-svg-node-iy4wkpw9" />
  <path
     inkscape:connector-curvature="0"
     d="m 12.963867,32.504601 q 0.08789,1.582031 -0.32959,3.47168 l 2.944336,-1.889649 -2.614746,-1.582031 m 9.536133,7.11914 -12.8100589,0 Q 12.194824,34.548058 10.953369,29.593224 9.7119141,24.638391 6.5039058,19.716516 q -0.263672,0.04395 -0.41748,0.04395 -1.186524,0 -2.032471,-0.845947 -0.845947,-0.845947 -0.845947,-2.032471 0,-1.186523 0.845947,-2.03247 0.845947,-0.845948 2.032471,-0.845948 1.186523,0 2.0324703,0.845948 0.845948,0.845947 0.845948,2.03247 0,0.439453 -0.131836,0.834961 -0.08789,0.307617 -0.32959,0.725098 l 4.3066409,3.054199 2.197265,-10.678711 Q 13.601074,10.136438 13.425293,8.5544065 13.31543,7.5876097 14.0625,6.5548946 q 0.74707,-1.032715 1.933594,-1.164551 1.186523,-0.109863 2.109375,0.637207 0.922851,0.747071 1.054687,1.9335942 0.153809,1.4941402 -1.010742,2.5048832 L 22.5,19.518762 26.850586,10.466028 Q 25.664062,9.455285 25.839844,7.9611448 25.97168,6.7746216 26.894531,6.0275506 q 0.922852,-0.74707 2.109375,-0.637207 1.186524,0.131836 1.922608,1.164551 0.736084,1.0327151 0.648193,1.9995119 -0.197754,1.5820315 -1.582031,2.2631835 l 2.197265,10.678711 4.306641,-3.054199 q -0.263672,-0.417481 -0.32959,-0.725098 -0.131836,-0.395508 -0.131836,-0.834961 0,-1.186523 0.845948,-2.03247 0.845947,-0.845948 2.03247,-0.845948 1.186524,0 2.032471,0.845948 0.845947,0.845947 0.845947,2.03247 0,1.186524 -0.845947,2.032471 -0.845947,0.845947 -2.032471,0.845947 -0.153808,0 -0.41748,-0.04395 -3.229981,4.921875 -4.460449,9.876708 -1.230469,4.954834 1.274414,10.030517 l -12.810059,0 m 0,-9.887695 q 2.39502,0 4.87793,0.626221 2.48291,0.626221 4.680175,1.483154 0.04395,-0.900879 0.2417,-1.955566 Q 29.926758,28.967003 27.432861,28.395714 24.938965,27.824425 22.5,27.824425 q -2.438965,0 -4.943848,0.571289 -2.504882,0.571289 -4.855957,1.494141 0.175782,1.054687 0.2417,1.955566 2.175293,-0.856933 4.658203,-1.483154 2.48291,-0.626221 4.899902,-0.626221 m 0,8.261719 10.50293,0 q -0.32959,-0.74707 -0.527344,-1.604004 l -9.975586,0 -9.975586,0 q -0.219726,0.856934 -0.527344,1.604004 l 10.50293,0 m 9.536133,-5.493164 -2.614746,1.582031 2.944336,1.889649 q -0.439453,-1.889649 -0.32959,-3.47168 M 19.445801,33.537316 22.5,35.448937 25.554199,33.603234 22.5,31.713585 19.445801,33.537316 Z"
     id="ludo-svg-node-iy4wkpy2" />
  <path
     style="opacity:1;fill:#ffffff;fill-opacity:1;fill-rule:nonzero;stroke:none;stroke-width:5;stroke-miterlimit:4;stroke-dasharray:none;stroke-opacity:1"
     d="m 13.004237,31.391109 c 0,-0.186561 -0.05128,-0.595606 -0.113957,-0.908988 l -0.113957,-0.569787 1.877728,-0.59621 c 3.587178,-1.138988 4.300505,-1.253818 7.788745,-1.253818 3.483749,0 4.124791,0.102624 7.872737,1.260335 1.454284,0.449218 1.935177,0.675128 1.85911,0.873357 -0.05644,0.147067 -0.102609,0.550528 -0.102609,0.896578 l 0,0.629182 -2.25916,-0.723498 c -4.768263,-1.527041 -8.378852,-1.696214 -12.627823,-0.591672 -1.213794,0.315532 -2.651029,0.742451 -3.193856,0.948709 -0.932653,0.35438 -0.986958,0.35635 -0.986958,0.03581 z"
     id="path4133"
     inkscape:connector-curvature="0" />
  <path
     style="opacity:1;fill:#ffffff;fill-opacity:1;fill-rule:nonzero;stroke:none;stroke-width:5;stroke-miterlimit:4;stroke-dasharray:none;stroke-opacity:1"
     d="m 12.950717,34.279068 c 0.05807,-0.804864 0.127396,-1.48977 0.154062,-1.522013 0.02667,-0.03224 0.536897,0.253811 1.133847,0.635675 0.59695,0.381864 1.051471,0.72819 1.010048,0.769613 -0.04142,0.04142 -0.599164,0.413895 -1.239424,0.827715 l -1.16411,0.7524 0.105577,-1.46339 z"
     id="path4135"
     inkscape:connector-curvature="0" />
  <path
     style="opacity:1;fill:#ffffff;fill-opacity:1;fill-rule:nonzero;stroke:none;stroke-width:5;stroke-miterlimit:4;stroke-dasharray:none;stroke-opacity:1"
     d="m 21.040719,34.441238 -1.402077,-0.905752 1.420864,-0.862627 1.420865,-0.862628 1.445099,0.895495 1.4451,0.895495 -1.082531,0.641467 c -0.595392,0.352807 -1.254141,0.745605 -1.463887,0.872885 -0.330612,0.200625 -0.567917,0.110897 -1.783433,-0.674335 z"
     id="path4137"
     inkscape:connector-curvature="0" />
  <path
     style="opacity:1;fill:#ffffff;fill-opacity:1;fill-rule:nonzero;stroke:none;stroke-width:5;stroke-miterlimit:4;stroke-dasharray:none;stroke-opacity:1"
     d="m 30.968582,34.974978 c -0.651576,-0.428194 -1.184684,-0.832564 -1.184684,-0.898598 0,-0.06603 0.450477,-0.391445 1.001059,-0.723136 l 1.00106,-0.603073 0.209923,1.462838 c 0.115458,0.804561 0.198089,1.480314 0.183624,1.501672 -0.01446,0.02136 -0.559406,-0.311508 -1.210982,-0.739703 z"
     id="path4139"
     inkscape:connector-curvature="0" />
  <path
     style="opacity:1;fill:#ffffff;fill-opacity:1;fill-rule:nonzero;stroke:none;stroke-width:5;stroke-miterlimit:4;stroke-dasharray:none;stroke-opacity:1"
     d="m 12.241525,37.690379 c 0,-0.09804 0.08368,-0.398363 0.185959,-0.667373 l 0.185958,-0.489108 9.901321,0 9.90132,0 0.209331,0.600488 c 0.115133,0.330268 0.209332,0.630586 0.209332,0.667373 0,0.03679 -4.633475,0.06689 -10.296611,0.06689 -6.2593,0 -10.29661,-0.0699 -10.29661,-0.178265 z"
     id="path4141"
     inkscape:connector-curvature="0" />
</svg>
