<?xml version="1.0" encoding="UTF-8" standalone="no"?>
<svg
   xmlns:dc="http://purl.org/dc/elements/1.1/"
   xmlns:cc="http://creativecommons.org/ns#"
   xmlns:rdf="http://www.w3.org/1999/02/22-rdf-syntax-ns#"
   xmlns:svg="http://www.w3.org/2000/svg"
   xmlns="http://www.w3.org/2000/svg"
   xmlns:sodipodi="http://sodipodi.sourceforge.net/DTD/sodipodi-0.dtd"
   xmlns:inkscape="http://www.inkscape.org/namespaces/inkscape"
   version="1.1"
   id="ludo-svg-node-iy4wkpv5"
   width="45"
   height="45"
   viewBox="0 0 45 45"
   style="-webkit-tap-highlight-color: rgba(0, 0, 0, 0); width: 45px; height: 45px;"
   inkscape:version="0.91 r13725"
   sodipodi:docname="wk.svg">
  <metadata
     id="metadata20">
    <rdf:RDF>
      <cc:Work
         rdf:about="">
        <dc:format>image/svg+xml</dc:format>
        <dc:type
           rdf:resource="http://purl.org/dc/dcmitype/StillImage" />
      </cc:Work>
    </rdf:RDF>
  </metadata>
  <defs
     id="defs18" />
  <sodipodi:namedview
     pagecolor="#ffffff"
     bordercolor="#666666"
     borderopacity="1"
     objecttolerance="10"
     gridtolerance="10"
     guidetolerance="10"
     inkscape:pageopacity="0"
     inkscape:pageshadow="2"
     inkscape:window-width="699"
     inkscape:window-height="480"
     id="namedview16"
     showgrid="false"
     inkscape:zoom="5.2444444"
     inkscape:cx="14.374867"
     inkscape:cy="22.5"
     inkscape:window-x="0"
     inkscape:window-y="0"
     inkscape:window-maximized="0"
     inkscape:current-layer="ludo-svg-node-iy4wkpv5" />
  <path
     inkscape:connector-curvature="0"
     style="fill:#000000;stroke-width:0"
     fill-rule="even-odd"
     d="m 21.467371,6.5698241 0,-2.087402 2.06543,0 0,2.087402 2.351074,0 0,2.087403 -2.351074,0 0,3.3618159 q -1.054688,-0.351562 -2.06543,0 l 0,-3.3618159 -2.351074,0 0,-2.087403 2.351074,0 m 1.032715,6.8994149 q -1.032715,0 -2.988281,2.658691 -0.681153,-0.791016 -1.098633,-1.208496 2.043457,-3.076172 4.086914,-3.076172 2.021484,0 4.086914,3.076172 -0.439453,0.41748 -1.098633,1.208496 -1.977539,-2.658691 -2.988281,-2.658691 m -9.821777,19.929199 -0.571289,3.427734 3.186035,-1.845703 -2.614746,-1.582031 m 9.008789,-4.526367 q -0.02197,-3.229981 -0.802002,-6.031494 -0.78003,-2.801514 -1.768799,-4.251709 -0.98877,-1.933594 -2.889404,-3.361817 -1.900635,-1.428223 -3.702393,-1.428223 -2.263184,0 -4.5703125,2.043458 -2.307128,2.043457 -2.307128,5.031738 0,2.395019 1.900634,5.185547 1.900635,2.790527 4.4494625,4.899902 4.658203,-1.933594 9.689942,-2.087402 m 0.812988,11.645507 -12.6562495,0 1.3403315,-8.020019 Q 4.0430555,26.345215 4.0210825,20.742188 q -0.02197,-3.493653 2.746582,-6.031494 2.768555,-2.537842 5.8666985,-2.537842 1.713868,0 3.482666,1.032715 1.768799,1.032715 3.131104,2.614746 1.340332,1.625976 2.164307,3.614502 0.823974,1.988525 1.087646,3.306885 0.263672,-1.31836 1.07666,-3.306885 0.812988,-1.988526 2.175293,-3.614502 1.340332,-1.582031 3.120117,-2.614746 1.779785,-1.032715 3.493653,-1.032715 3.076172,0 5.844726,2.537842 2.768555,2.537841 2.768555,6.031494 -0.04395,5.603027 -7.163086,11.755371 l 1.340332,8.020019 -12.65625,0 m 0,-1.625976 10.744629,0 -1.098633,-6.547852 q -4.746094,-1.845703 -9.645996,-1.845703 -4.899902,0 -9.645996,1.845703 l -1.098633,6.547852 10.744629,0 m 9.821777,-5.493164 0.571289,3.427734 -3.186035,-1.845703 2.614746,-1.582031 m -9.008789,-4.526367 q 5.031739,0.153808 9.689942,2.087402 2.526855,-2.109375 4.438476,-4.899902 1.911621,-2.790528 1.911621,-5.185547 0,-2.988281 -2.318115,-5.031738 -2.318115,-2.043458 -4.559326,-2.043458 -1.823731,0 -3.724365,1.428223 -1.900635,1.428223 -2.867432,3.361817 -1.010742,1.450195 -1.790771,4.251709 -0.78003,2.801513 -0.78003,6.031494 m -3.867187,5.119629 3.098144,-1.845704 3.010254,1.889649 -3.098144,1.845703 -3.010254,-1.889648 z"
     id="ludo-svg-node-iy4wkpv7" />
  <path
     style="opacity:1;fill:#ffffff;fill-opacity:1;fill-rule:nonzero;stroke:none;stroke-width:5;stroke-miterlimit:4;stroke-dasharray:none;stroke-opacity:1"
     d="M 10.755184,29.717161 C 9.195061,28.230653 7.4421905,25.870455 6.6130145,24.139831 6.018039,22.898021 5.9189926,22.488302 5.8606837,21.027712 5.7980971,19.459968 5.8340385,19.263403 6.389646,18.134804 6.7698344,17.362532 7.3639786,16.578257 8.029935,15.96961 c 3.060324,-2.796963 6.139741,-2.71053 9.159324,0.257085 2.384898,2.343852 3.983315,6.453944 4.353804,11.195162 l 0.100015,1.279907 -0.61186,0.09341 c -0.336523,0.05137 -1.169593,0.144736 -1.851266,0.207476 -1.544152,0.142119 -3.913057,0.689928 -5.732804,1.325709 -0.763819,0.266863 -1.423077,0.485206 -1.465017,0.485206 -0.04194,0 -0.594065,-0.49338 -1.226947,-1.096399 z"
     id="path4133"
     inkscape:connector-curvature="0" />
  <path
     style="opacity:1;fill:#ffffff;fill-opacity:1;fill-rule:nonzero;stroke:none;stroke-width:5;stroke-miterlimit:4;stroke-dasharray:none;stroke-opacity:1"
     d="m 22.248218,21.43545 c -0.361845,-1.234481 -1.156863,-2.986207 -1.873603,-4.128257 -0.36637,-0.583771 -0.59399,-1.156364 -0.534364,-1.344227 0.05713,-0.179998 0.547748,-0.773478 1.090264,-1.318846 1.227335,-1.233786 1.735279,-1.286657 2.83305,-0.294887 0.424135,0.38318 0.947937,0.94496 1.164005,1.248399 l 0.392851,0.551709 -0.470062,0.710313 c -0.752637,1.137311 -1.309216,2.311134 -1.853217,3.908423 l -0.507643,1.490535 -0.241281,-0.823162 z"
     id="path4135"
     inkscape:connector-curvature="0" />
  <path
     style="opacity:1;fill:#ffffff;fill-opacity:1;fill-rule:nonzero;stroke:none;stroke-width:5;stroke-miterlimit:4;stroke-dasharray:none;stroke-opacity:1"
     d="m 30.905299,30.14252 c -2.048707,-0.681414 -4.805726,-1.232334 -6.195686,-1.238051 -1.418311,-0.0058 -1.43386,-0.03846 -1.171453,-2.457858 0.491078,-4.527761 2.16845,-8.375601 4.606821,-10.567906 3.000177,-2.697417 6.088513,-2.586292 9.048785,0.325595 1.59305,1.567011 2.077321,2.802987 1.965316,5.015955 -0.0667,1.31777 -0.186936,1.779698 -0.770717,2.960899 -0.38043,0.769748 -1.140775,1.997752 -1.689654,2.728897 -1.023825,1.363805 -3.483024,3.917853 -3.741028,3.885316 -0.07934,-0.01 -1.002914,-0.303787 -2.052384,-0.652847 z"
     id="path4137"
     inkscape:connector-curvature="0" />
  <path
     style="opacity:1;fill:#ffffff;fill-opacity:1;fill-rule:nonzero;stroke:none;stroke-width:5;stroke-miterlimit:4;stroke-dasharray:none;stroke-opacity:1"
     d="m 12.020844,37.916314 c 0.145582,-1.014627 0.248388,-1.120037 2.057196,-2.109287 0.707191,-0.386767 1.286375,-0.749739 1.287077,-0.806603 7.01e-4,-0.05687 -0.556458,-0.429651 -1.238131,-0.828413 -1.05566,-0.617534 -1.239407,-0.803831 -1.239407,-1.256598 0,-0.498525 0.09781,-0.562483 1.573093,-1.028668 3.094915,-0.977981 4.386322,-1.164642 8.056144,-1.16444 3.679947,2.02e-4 4.496364,0.115585 7.674788,1.084661 1.831039,0.558268 1.954449,0.627498 1.954449,1.096372 0,0.414491 -0.212939,0.62504 -1.239406,1.225499 -0.681674,0.398762 -1.237006,0.781262 -1.23407,0.85 0.0029,0.06874 0.732278,0.538394 1.620763,1.043682 1.091799,0.620915 1.615425,1.030385 1.615425,1.263242 0,0.189495 0.05363,0.612677 0.119174,0.940404 l 0.119174,0.595869 -10.628113,0 -10.628112,0 0.129956,-0.90572 z m 11.33727,-2.463065 c 0.481142,-0.279738 1.208003,-0.717056 1.615247,-0.971817 l 0.740444,-0.463201 -1.217138,-0.769855 c -2.019473,-1.277341 -1.85362,-1.266212 -3.601248,-0.241648 -0.927353,0.54367 -1.480551,0.978189 -1.377085,1.081655 0.18243,0.182429 2.751709,1.838661 2.88639,1.860651 0.04322,0.0071 0.472249,-0.216046 0.95339,-0.495785 z"
     id="path4139"
     inkscape:connector-curvature="0" />
</svg>
