<?xml version="1.0" encoding="UTF-8" standalone="no"?>
<svg
   xmlns:dc="http://purl.org/dc/elements/1.1/"
   xmlns:cc="http://creativecommons.org/ns#"
   xmlns:rdf="http://www.w3.org/1999/02/22-rdf-syntax-ns#"
   xmlns:svg="http://www.w3.org/2000/svg"
   xmlns="http://www.w3.org/2000/svg"
   xmlns:sodipodi="http://sodipodi.sourceforge.net/DTD/sodipodi-0.dtd"
   xmlns:inkscape="http://www.inkscape.org/namespaces/inkscape"
   version="1.1"
   id="ludo-svg-node-iy4wkpvt"
   width="45"
   height="45"
   viewBox="0 0 45 45"
   style="-webkit-tap-highlight-color: rgba(0, 0, 0, 0); width: 45px; height: 45px;"
   inkscape:version="0.91 r13725"
   sodipodi:docname="bn.svg">
  <metadata
     id="metadata13">
    <rdf:RDF>
      <cc:Work
         rdf:about="">
        <dc:format>image/svg+xml</dc:format>
        <dc:type
           rdf:resource="http://purl.org/dc/dcmitype/StillImage" />
      </cc:Work>
    </rdf:RDF>
  </metadata>
  <defs
     id="defs11" />
  <sodipodi:namedview
     pagecolor="#ffffff"
     bordercolor="#666666"
     borderopacity="1"
     objecttolerance="10"
     gridtolerance="10"
     guidetolerance="10"
     inkscape:pageopacity="0"
     inkscape:pageshadow="2"
     inkscape:window-width="799"
     inkscape:window-height="531"
     id="namedview9"
     showgrid="false"
     inkscape:zoom="5.2444444"
     inkscape:cx="17.013187"
     inkscape:cy="22.5"
     inkscape:window-x="286"
     inkscape:window-y="180"
     inkscape:window-maximized="0"
     inkscape:current-layer="ludo-svg-node-iy4wkpvt" />
  <g
     id="g5252"
     transform="translate(-2e-7,4.207765)">
    <path
       id="ludo-svg-node-iy4wkpxt"
       d="m 10.535886,19.368903 -1.1425776,0.02197 -0.571289,1.40625 1.5161136,0.461426 1.010742,-1.208496 -0.812989,-0.681152 M 22.31323,15.260014 q 0.74707,0.02197 -0.351562,-1.494141 -1.098633,-1.516113 -1.757813,-0.922851 l -2.548828,2.395019 4.658203,0.02197 m -7.426757,-2.15332 q 0.131836,-0.856934 2.537841,-2.362061 2.406006,-1.5051271 4.844971,-3.1530761 l 2.526855,-3.383789 2.109375,4.768067 q 7.514649,3.7792961 9.503175,9.1735831 1.988526,5.394287 1.043701,13.260498 -0.395507,2.8125 0.09888,5.185547 0.494385,2.373047 1.263428,4.174805 l -27.29004,0.02197 q -0.197754,-3.911132 0.856935,-6.624755 1.054687,-2.713623 4.020995,-5.218506 1.098632,-0.241699 1.812744,-0.86792 0.714111,-0.626221 1.175537,-1.285401 0,0 1.373291,-0.02197 1.373291,-0.02197 3.032226,-0.637207 1.658936,-0.615235 3.0542,-2.131348 1.395263,-1.516113 1.461181,-4.54834 0,-0.373535 -0.186767,-0.74707 -0.186768,-0.373535 -0.252686,-0.812988 -1.362304,5.009765 -3.537597,6.339111 -2.175293,1.329346 -4.196778,1.2854 -5.185546,-0.922851 -6.416014,1.31836 -1.230472,2.241216 -1.230472,2.241216 L 7.7233864,26.422125 10.250242,24.620367 9.1296364,23.521735 6.4489734,25.411383 6.1853014,18.885504 14.886473,13.106696 m 21.555176,26.191406 q -2.241212,-2.856445 -1.867677,-6.778565 0.373536,-3.922119 0.593262,-7.965088 0.219727,-4.042968 -1.098633,-7.723388 -1.318359,-3.68042 -6.943359,-6.053467 4.833984,3.603516 5.548096,7.514648 0.714111,3.911133 0.362548,7.701416 -0.351562,3.790284 -0.263671,7.229004 0.08789,3.438721 3.669434,6.07544 z"
       inkscape:connector-curvature="0" />
    <path
       inkscape:connector-curvature="0"
       id="path4133"
       d="M 9.4586294,20.887464 C 9.1113318,20.7482 9.0442786,20.617722 9.1463742,20.279847 c 0.1703665,-0.563811 0.27881,-0.666028 0.8582068,-0.808934 0.352404,-0.08692 0.582578,-0.01185 0.841742,0.274522 0.349719,0.386435 0.347971,0.403451 -0.08925,0.868851 -0.48232,0.513407 -0.62467,0.543355 -1.2984436,0.273178 z"
       style="opacity:1;fill:#ffffff;fill-opacity:1;fill-rule:nonzero;stroke:none;stroke-width:5;stroke-miterlimit:4;stroke-dasharray:none;stroke-opacity:1" />
    <path
       inkscape:connector-curvature="0"
       id="path4135"
       d="m 19.198264,13.913116 c 1.227162,-1.197818 1.30935,-1.244659 1.716101,-0.978062 0.472928,0.309971 1.666619,1.790471 1.666619,2.067057 0,0.09797 -1.034529,0.174354 -2.335805,0.172465 l -2.335805,-0.0034 1.28889,-1.258069 z"
       style="opacity:1;fill:#ffffff;fill-opacity:1;fill-rule:nonzero;stroke:none;stroke-width:5;stroke-miterlimit:4;stroke-dasharray:none;stroke-opacity:1" />
    <path
       inkscape:connector-curvature="0"
       id="path4137"
       d="m 34.583891,37.439619 c -0.442727,-0.550583 -0.986308,-1.387182 -1.207958,-1.85911 -0.436787,-0.92999 -0.459375,-1.797527 -0.302846,-11.631356 0.09389,-5.898898 -0.491219,-7.897307 -3.172373,-10.834976 -0.68691,-0.752628 -1.169473,-1.368414 -1.072365,-1.368414 0.363479,0 2.46018,1.492481 3.304722,2.352379 1.182281,1.203778 1.815097,2.431717 2.397338,4.651879 0.612744,2.336471 0.661758,5.564382 0.171056,11.265216 -0.371421,4.315067 -0.275539,5.585897 0.560161,7.424382 0.250272,0.550582 0.381281,1.001059 0.291131,1.001059 -0.09015,0 -0.526139,-0.450477 -0.968866,-1.001059 z"
       style="opacity:1;fill:#ffffff;fill-opacity:1;fill-rule:nonzero;stroke:none;stroke-width:5;stroke-miterlimit:4;stroke-dasharray:none;stroke-opacity:1" />
  </g>
</svg>
