<?xml version="1.0" encoding="UTF-8" standalone="no"?>
<svg
   xmlns:dc="http://purl.org/dc/elements/1.1/"
   xmlns:cc="http://creativecommons.org/ns#"
   xmlns:rdf="http://www.w3.org/1999/02/22-rdf-syntax-ns#"
   xmlns:svg="http://www.w3.org/2000/svg"
   xmlns="http://www.w3.org/2000/svg"
   xmlns:sodipodi="http://sodipodi.sourceforge.net/DTD/sodipodi-0.dtd"
   xmlns:inkscape="http://www.inkscape.org/namespaces/inkscape"
   version="1.1"
   id="ludo-svg-node-iy4wkpvd"
   width="45"
   height="45"
   viewBox="0 0 45 45"
   style="-webkit-tap-highlight-color: rgba(0, 0, 0, 0); width: 45px; height: 45px;"
   inkscape:version="0.91 r13725"
   sodipodi:docname="bp.svg">
  <metadata
     id="metadata5266">
    <rdf:RDF>
      <cc:Work
         rdf:about="">
        <dc:format>image/svg+xml</dc:format>
        <dc:type
           rdf:resource="http://purl.org/dc/dcmitype/StillImage" />
      </cc:Work>
    </rdf:RDF>
  </metadata>
  <defs
     id="defs5264" />
  <sodipodi:namedview
     pagecolor="#ffffff"
     bordercolor="#666666"
     borderopacity="1"
     objecttolerance="10"
     gridtolerance="10"
     guidetolerance="10"
     inkscape:pageopacity="0"
     inkscape:pageshadow="2"
     inkscape:window-width="941"
     inkscape:window-height="646"
     id="namedview5262"
     showgrid="false"
     inkscape:zoom="5.2444444"
     inkscape:cx="20.021186"
     inkscape:cy="22.5"
     inkscape:window-x="0"
     inkscape:window-y="0"
     inkscape:window-maximized="0"
     inkscape:current-layer="ludo-svg-node-iy4wkpvd" />
  <g
     id="ludo-svg-node-iy4wkpve"
     transform="translate(0.00151244,4.504395)">
    <path
       id="ludo-svg-node-iy4wkpxl"
       d="m 22.5,40.495605 -12.7001953,0 0,-1.625976 q -0.087891,-1.757813 0.9118653,-3.010254 0.999756,-1.252441 2.757568,-2.373047 2.570801,-1.999512 3.768311,-4.779053 1.19751,-2.779541 1.724853,-5.877685 l -6.306152,0 6.240234,-5.251465 q -1.889648,-1.625977 -1.889648,-4.130859 0,-2.263184 1.604004,-3.8891605 1.604004,-1.6259766 3.88916,-1.6259766 2.263184,0 3.878174,1.6259766 1.61499,1.6259765 1.61499,3.8891605 0,2.504882 -1.889648,4.130859 l 6.240234,5.251465 -6.306152,0 q 0.505371,3.098144 1.713867,5.877685 1.208496,2.779541 3.779297,4.779053 1.73584,1.120606 2.735595,2.373047 0.999756,1.252441 0.933838,3.010254 l 0,1.625976 -12.700195,0 z"
       inkscape:connector-curvature="0" />
    <path
       id="ludo-svg-node-iy4wkpvf"
       d="m 22.5,40.495605 -12.7001953,0 0,-1.625976 q -0.087891,-1.757813 0.9118653,-3.010254 0.999756,-1.252441 2.757568,-2.373047 2.570801,-1.999512 3.768311,-4.779053 1.19751,-2.779541 1.724853,-5.877685 l -6.306152,0 6.240234,-5.251465 q -1.889648,-1.625977 -1.889648,-4.130859 0,-2.263184 1.604004,-3.8891605 1.604004,-1.6259766 3.88916,-1.6259766 2.263184,0 3.878174,1.6259766 1.61499,1.6259765 1.61499,3.8891605 0,2.504882 -1.889648,4.130859 l 6.240234,5.251465 -6.306152,0 q 0.505371,3.098144 1.713867,5.877685 1.208496,2.779541 3.779297,4.779053 1.73584,1.120606 2.735595,2.373047 0.999756,1.252441 0.933838,3.010254 l 0,1.625976 -12.700195,0 z"
       fill-rule="even-odd"
       style="fill:#000000;stroke-width:0"
       inkscape:connector-curvature="0" />
  </g>
</svg>
