<?xml version="1.0" encoding="UTF-8" standalone="no"?>
<svg
   xmlns:dc="http://purl.org/dc/elements/1.1/"
   xmlns:cc="http://creativecommons.org/ns#"
   xmlns:rdf="http://www.w3.org/1999/02/22-rdf-syntax-ns#"
   xmlns:svg="http://www.w3.org/2000/svg"
   xmlns="http://www.w3.org/2000/svg"
   xmlns:sodipodi="http://sodipodi.sourceforge.net/DTD/sodipodi-0.dtd"
   xmlns:inkscape="http://www.inkscape.org/namespaces/inkscape"
   version="1.1"
   id="ludo-svg-node-iy4wkpw1"
   width="45"
   height="45"
   viewBox="0 0 45 45"
   style="-webkit-tap-highlight-color: rgba(0, 0, 0, 0); width: 45px; height: 45px;"
   inkscape:version="0.91 r13725"
   sodipodi:docname="br.svg">
  <metadata
     id="metadata12">
    <rdf:RDF>
      <cc:Work
         rdf:about="">
        <dc:format>image/svg+xml</dc:format>
        <dc:type
           rdf:resource="http://purl.org/dc/dcmitype/StillImage" />
      </cc:Work>
    </rdf:RDF>
  </metadata>
  <defs
     id="defs10" />
  <sodipodi:namedview
     pagecolor="#ffffff"
     bordercolor="#666666"
     borderopacity="1"
     objecttolerance="10"
     gridtolerance="10"
     guidetolerance="10"
     inkscape:pageopacity="0"
     inkscape:pageshadow="2"
     inkscape:window-width="938"
     inkscape:window-height="590"
     id="namedview8"
     showgrid="false"
     inkscape:zoom="5.2444444"
     inkscape:cx="22.5"
     inkscape:cy="22.5"
     inkscape:window-x="219"
     inkscape:window-y="106"
     inkscape:window-maximized="0"
     inkscape:current-layer="ludo-svg-node-iy4wkpw1" />
  <g
     id="g6913"
     transform="translate(-2.5e-7,6.141358)">
    <path
       id="ludo-svg-node-iy4wkpw3"
       d="m 22.499999,38.858642 -14.0844715,0 0.637207,-5.800781 3.4936515,-2.592773 1.098633,-14.479981 -3.273926,-2.351074 -0.3735345,-7.4926754 6.3500965,0 0,3.2299807 3.010254,0 0,-3.2299807 3.142091,0 3.14209,0 0,3.2299807 3.010254,0 0,-3.2299807 6.350097,0 -0.373535,7.4926754 -3.273926,2.351074 1.098633,14.479981 3.493653,2.592773 0.637207,5.800781 -14.084473,0 m 0,-21.730957 7.316895,0 -0.131836,-1.933593 -7.185059,0 -7.185059,0 -0.131836,1.933593 7.316895,0 m 0,14.216309 8.371582,0 -0.131836,-1.911621 -8.239746,0 -8.239746,0 -0.131836,1.911621 8.371582,0 z"
       fill-rule="even-odd"
       style="fill:#000000;stroke-width:0"
       inkscape:connector-curvature="0" />
    <path
       inkscape:connector-curvature="0"
       id="path4133"
       d="m 14.309139,30.336865 0.06824,-0.858051 8.179953,0 8.179952,0 0,0.858051 0,0.85805 -8.248196,0 -8.248196,0 0.06824,-0.85805 z"
       style="opacity:1;fill:#ffffff;fill-opacity:1;fill-rule:nonzero;stroke:none;stroke-width:5;stroke-miterlimit:4;stroke-dasharray:none;stroke-opacity:1" />
    <path
       inkscape:connector-curvature="0"
       id="path4135"
       d="m 15.292373,16.226695 0,-0.858051 7.150423,0 7.150424,0 0.0026,0.429026 c 0.0014,0.235964 0.05434,0.622087 0.117578,0.858051 l 0.114975,0.429025 -7.268002,0 -7.268001,0 0,-0.858051 z"
       style="opacity:1;fill:#ffffff;fill-opacity:1;fill-rule:nonzero;stroke:none;stroke-width:5;stroke-miterlimit:4;stroke-dasharray:none;stroke-opacity:1" />
  </g>
</svg>
