<?xml version="1.0" encoding="UTF-8" standalone="no"?>
<svg
   xmlns:dc="http://purl.org/dc/elements/1.1/"
   xmlns:cc="http://creativecommons.org/ns#"
   xmlns:rdf="http://www.w3.org/1999/02/22-rdf-syntax-ns#"
   xmlns:svg="http://www.w3.org/2000/svg"
   xmlns="http://www.w3.org/2000/svg"
   xmlns:sodipodi="http://sodipodi.sourceforge.net/DTD/sodipodi-0.dtd"
   xmlns:inkscape="http://www.inkscape.org/namespaces/inkscape"
   version="1.1"
   id="ludo-svg-node-iy4wkpu9"
   width="45"
   height="45"
   viewBox="0 0 45 45"
   style="-webkit-tap-highlight-color: rgba(0, 0, 0, 0); width: 45px; height: 45px;"
   inkscape:version="0.91 r13725"
   sodipodi:docname="wb.svg">
  <metadata
     id="metadata15">
    <rdf:RDF>
      <cc:Work
         rdf:about="">
        <dc:format>image/svg+xml</dc:format>
        <dc:type
           rdf:resource="http://purl.org/dc/dcmitype/StillImage" />
      </cc:Work>
    </rdf:RDF>
  </metadata>
  <defs
     id="defs13" />
  <sodipodi:namedview
     pagecolor="#ffffff"
     bordercolor="#666666"
     borderopacity="1"
     objecttolerance="10"
     gridtolerance="10"
     guidetolerance="10"
     inkscape:pageopacity="0"
     inkscape:pageshadow="2"
     inkscape:window-width="1002"
     inkscape:window-height="634"
     id="namedview11"
     showgrid="false"
     inkscape:zoom="5.2444444"
     inkscape:cx="-0.38135683"
     inkscape:cy="22.5"
     inkscape:window-x="0"
     inkscape:window-y="0"
     inkscape:window-maximized="0"
     inkscape:current-layer="ludo-svg-node-iy4wkpu9" />
  <g
     id="g7468"
     transform="translate(5.0000001e-8,3.988037)">
    <path
       id="ludo-svg-node-iy4wkpub"
       d="m 22.500001,8.3386228 q 1.450195,0 1.40625,-1.450195 0.02197,-1.208496 -1.40625,-1.208496 -1.450195,0 -1.40625,1.208496 -0.06592,1.450195 1.40625,1.450195 m 0,26.4550792 q 0,2.504883 -2.219238,4.361572 -2.219239,1.856689 -4.899903,1.856689 l -10.8764641,0 q 0,-2.5708 1.4282222,-3.933105 1.428223,-1.362305 3.120118,-1.362305 l 5.4931629,0 q 1.120606,0 1.933594,-0.153808 0.812988,-0.153809 1.560059,-1.31836 0.263672,-0.439453 0.219726,-0.351562 l 1.669922,0 q -0.153808,0.461426 -0.06592,0.285644 -0.988769,2.307129 -2.395019,2.735596 -1.40625,0.428467 -3.208008,0.428467 l -5.2734369,0 q -1.142578,0 -1.889649,0.878906 -0.74707,0.878906 -0.74707,1.164551 l 9.3164059,0 q 1.450195,0 3.482666,-1.428223 2.032471,-1.428222 2.054443,-4.064941 l -7.492675,0 q 1.472167,-2.548828 1.582031,-5.031738 -2.504883,-2.614747 -3.559571,-4.910889 -1.054687,-2.296143 -0.131835,-4.910889 0.725097,-2.109375 2.592773,-4.163818 1.867676,-2.054443 6.855469,-5.4162602 -0.373533,-0.2417 -1.010741,-0.791016 -0.637207,-0.549316 -0.637207,-1.73584 0,-1.274414 0.900879,-2.109375 0.900879,-0.8349607 2.197266,-0.8349607 1.274414,0 2.186279,0.8349607 0.911866,0.834961 0.911866,2.109375 0,1.186524 -0.648194,1.73584 -0.648193,0.549316 -0.999756,0.791016 4.965821,3.3618172 6.833496,5.4162602 1.867676,2.054443 2.614746,4.163818 0.922852,2.614746 -0.131835,4.910889 -1.054688,2.296142 -3.559571,4.910889 0.08789,2.48291 1.582031,5.031738 l -7.492675,0 q 0,2.636719 2.043457,4.064941 2.043457,1.428223 3.493652,1.428223 l 9.316406,0 q 0,-0.285645 -0.758056,-1.164551 Q 37.13379,37.34253 36.013185,37.34253 l -5.273438,0 q -1.82373,0 -3.218994,-0.428467 -1.395264,-0.428467 -2.384033,-2.735596 0.08789,0.175782 -0.06592,-0.285644 l 1.669922,0 q -0.04395,-0.08789 0.219726,0.351562 0.725098,1.164551 1.538086,1.31836 0.812988,0.153808 1.955567,0.153808 l 5.493164,0 q 1.669921,0 3.10913,1.362305 1.439209,1.362305 1.439209,3.933105 l -10.876464,0 q -2.702637,0 -4.910889,-1.856689 -2.20825,-1.856689 -2.20825,-4.361572 m 0,-2.504883 6.218262,0 q -0.615235,-1.845703 -0.637207,-3.383789 -2.636719,-0.900879 -5.581055,-0.834961 -2.966309,-0.06592 -5.581055,0.834961 -0.04395,1.538086 -0.637207,3.383789 l 6.218262,0 m 0,-5.866699 q 3.493652,-0.02197 6.262207,0.922851 4.152832,-3.955078 3.120117,-7.602539 -1.318359,-4.240722 -9.382324,-9.470215 -8.085937,5.229493 -9.382324,9.470215 -1.054688,3.647461 3.120117,7.602539 2.746582,-0.944824 6.262207,-0.922851 m -1.032715,-7.932129 0,-2.285156 2.06543,0 0,2.285156 2.087402,0 0,1.955566 -2.087402,0 0,3.625488 -2.06543,0 0,-3.625488 -2.087402,0 0,-1.955566 2.087402,0 z"
       fill-rule="even-odd"
       style="fill:#000000;stroke-width:0"
       inkscape:connector-curvature="0" />
    <path
       inkscape:connector-curvature="0"
       id="path4133"
       d="m 15.104079,25.998941 c -1.888403,-2.324109 -2.485541,-4.413034 -1.827685,-6.393654 0.701526,-2.112096 3.038437,-4.736725 6.484934,-7.283353 2.978805,-2.201048 2.539453,-2.097824 4.160176,-0.977418 4.583689,3.168702 7.434486,6.355743 7.963171,8.902409 0.386032,1.859505 -0.419868,4.012304 -2.244457,5.995612 l -0.905049,0.983778 -1.239406,-0.351505 c -1.747449,-0.495589 -8.290267,-0.504218 -10.038117,-0.01324 -0.644375,0.181008 -1.219664,0.329106 -1.278419,0.329106 -0.05876,0 -0.542572,-0.536282 -1.075148,-1.191737 z m 8.578124,-3.670551 0,-1.811441 1.048729,0 1.048729,0 0,-1.048728 0,-1.048729 -1.048729,0 -1.048729,0 0,-1.144068 0,-1.144068 -1.144068,0 -1.144067,0 0,1.144068 0,1.144068 -1.048729,0 -1.048729,0 0,1.048729 0,1.048728 1.048729,0 1.048729,0 0,1.811441 0,1.811441 1.144067,0 1.144068,0 0,-1.811441 z"
       style="opacity:1;fill:#ffffff;fill-opacity:1;fill-rule:nonzero;stroke:none;stroke-width:5;stroke-miterlimit:4;stroke-dasharray:none;stroke-opacity:1" />
    <path
       inkscape:connector-curvature="0"
       id="path4135"
       d="M 21.966102,8.1812326 C 21.496564,8.0134242 21.20339,7.515237 21.20339,6.8851662 c 0,-0.7983867 0.303934,-1.0504202 1.26673,-1.0504202 1.324686,0 1.839043,1.1064764 0.934734,2.0107859 -0.454423,0.4544227 -0.848974,0.5464823 -1.438752,0.3357007 z"
       style="opacity:1;fill:#ffffff;fill-opacity:1;fill-rule:nonzero;stroke:none;stroke-width:5;stroke-miterlimit:4;stroke-dasharray:none;stroke-opacity:1" />
    <path
       inkscape:connector-curvature="0"
       id="path4137"
       d="m 16.512729,31.843176 c 0.0644,-0.167821 0.213156,-0.886839 0.330572,-1.597818 0.207858,-1.258629 0.231686,-1.298108 0.90437,-1.498396 2.356664,-0.701682 6.555552,-0.759275 9.033049,-0.123901 1.247864,0.320025 1.287076,0.348441 1.287076,0.932719 0,0.331451 0.116139,1.050362 0.258086,1.597581 l 0.258085,0.994944 -6.094164,0 c -5.508349,0 -6.082908,-0.02933 -5.977074,-0.305129 z"
       style="opacity:1;fill:#ffffff;fill-opacity:1;fill-rule:nonzero;stroke:none;stroke-width:5;stroke-miterlimit:4;stroke-dasharray:none;stroke-opacity:1" />
    <path
       inkscape:connector-curvature="0"
       id="path4139"
       d="m 6.8806572,38.662091 c 0.7664239,-1.076343 0.7458966,-1.071592 5.1513548,-1.192404 2.434532,-0.06676 4.5011,-0.215567 5.054386,-0.363941 1.095942,-0.293899 2.234971,-1.325338 2.61054,-2.363955 0.204594,-0.565794 0.342292,-0.686706 0.782045,-0.686706 0.472777,0 0.533729,0.06934 0.533729,0.607171 0,1.460831 -1.304018,3.043989 -3.320598,4.031411 l -1.040989,0.509723 -5.077954,0 -5.0779529,0 0.3854391,-0.541299 z"
       style="opacity:1;fill:#ffffff;fill-opacity:1;fill-rule:nonzero;stroke:none;stroke-width:5;stroke-miterlimit:4;stroke-dasharray:none;stroke-opacity:1" />
    <path
       inkscape:connector-curvature="0"
       id="path4141"
       d="m 27.363322,38.738501 c -1.848909,-0.860836 -3.094356,-2.314256 -3.40053,-3.968374 -0.127826,-0.690588 -0.113683,-0.715042 0.41356,-0.715042 0.453068,0 0.623922,0.147049 1.004595,0.864625 0.567726,1.070174 1.496742,1.905197 2.44329,2.196089 0.400542,0.123094 2.572491,0.26512 4.893005,0.319957 l 4.172751,0.09861 0.737207,0.666022 c 0.405464,0.366312 0.737207,0.741842 0.737207,0.834512 0,0.0933 -2.233563,0.167659 -5.005297,0.166627 -4.891949,-0.0018 -5.027727,-0.01231 -5.995788,-0.463026 z"
       style="opacity:1;fill:#ffffff;fill-opacity:1;fill-rule:nonzero;stroke:none;stroke-width:5;stroke-miterlimit:4;stroke-dasharray:none;stroke-opacity:1" />
  </g>
</svg>
