<?xml version="1.0" encoding="UTF-8" standalone="no"?>
<svg
   xmlns:dc="http://purl.org/dc/elements/1.1/"
   xmlns:cc="http://creativecommons.org/ns#"
   xmlns:rdf="http://www.w3.org/1999/02/22-rdf-syntax-ns#"
   xmlns:svg="http://www.w3.org/2000/svg"
   xmlns="http://www.w3.org/2000/svg"
   xmlns:sodipodi="http://sodipodi.sourceforge.net/DTD/sodipodi-0.dtd"
   xmlns:inkscape="http://www.inkscape.org/namespaces/inkscape"
   version="1.1"
   id="ludo-svg-node-iy4wkpuh"
   width="45"
   height="45"
   viewBox="0 0 45 45"
   style="-webkit-tap-highlight-color: rgba(0, 0, 0, 0); width: 45px; height: 45px;"
   inkscape:version="0.91 r13725"
   sodipodi:docname="wn.svg">
  <metadata
     id="metadata17">
    <rdf:RDF>
      <cc:Work
         rdf:about="">
        <dc:format>image/svg+xml</dc:format>
        <dc:type
           rdf:resource="http://purl.org/dc/dcmitype/StillImage" />
      </cc:Work>
    </rdf:RDF>
  </metadata>
  <defs
     id="defs15" />
  <sodipodi:namedview
     pagecolor="#ffffff"
     bordercolor="#666666"
     borderopacity="1"
     objecttolerance="10"
     gridtolerance="10"
     guidetolerance="10"
     inkscape:pageopacity="0"
     inkscape:pageshadow="2"
     inkscape:window-width="844"
     inkscape:window-height="526"
     id="namedview13"
     showgrid="false"
     inkscape:zoom="5.2444444"
     inkscape:cx="22.499999"
     inkscape:cy="22.5"
     inkscape:window-x="199"
     inkscape:window-y="80"
     inkscape:window-maximized="0"
     inkscape:current-layer="ludo-svg-node-iy4wkpuh" />
  <g
     id="g8578"
     transform="translate(5.0000001e-8,4.207764)">
    <path
       id="ludo-svg-node-iy4wkpuj"
       d="m 21.566161,24.290773 q 0.681152,0.373535 1.186523,0.922851 0.461426,-0.32959 0.802002,-0.296631 0.340576,0.03296 0.736084,-0.03296 1.713867,-0.241699 2.823487,-1.867675 1.109619,-1.625977 1.153564,-3.625489 l -0.41748,-1.472168 q -1.208497,5.251465 -4.13086,5.646973 -0.461426,0.06592 -0.988769,0.12085 -0.527344,0.05493 -1.164551,0.604248 M 15.897216,14.425049 14.886473,13.10669 q 0.131836,-0.856934 2.537842,-2.362061 2.406006,-1.5051272 4.844971,-3.1530762 l 2.526855,-3.383789 2.109375,4.768066 q 7.514649,3.7792972 9.503174,9.1735842 1.988526,5.394287 1.043701,13.260498 -0.395507,2.8125 0.09888,5.196533 0.494385,2.384034 1.263428,4.185791 l -27.290039,0 q -0.197754,-3.911132 0.856934,-6.624755 1.054687,-2.713623 4.020996,-5.218506 1.713867,-0.351563 2.526855,-1.560059 0.812988,-1.208496 1.208496,-1.867676 -5.185547,-0.922851 -6.416015,1.31836 -1.230472,2.241212 -1.230472,2.241212 L 7.7233869,26.42212 10.250243,24.620362 9.1296368,23.52173 6.4489729,25.411378 6.1853009,18.885499 14.886473,13.106691 q 0.263672,0.395507 0.505371,0.681152 0.2417,0.285644 0.505372,0.637207 l -8.0419932,5.29541 0.08789,2.746582 1.40625,-0.900879 3.0322272,3.164063 -1.713868,1.428222 1.032715,0.615235 q 0,0 0.845947,-0.98877 0.845948,-0.988769 2.384034,-1.604004 1.186523,-0.395507 3.625488,-0.593261 2.438965,-0.197754 4.196777,1.625976 -1.230468,1.384278 -1.999511,2.911377 -0.769043,1.5271 -3.339844,2.252197 -2.021485,1.73584 -3.208008,3.878174 -1.186523,2.142334 -1.054687,4.910889 l 22.390136,0 q -0.769043,-2.922363 -0.703125,-5.152588 0.06592,-2.230225 0.274658,-4.372559 0.208741,-2.142334 0.197754,-4.504394 -0.01099,-2.362061 -0.889892,-5.548096 -1.120606,-2.768555 -2.944336,-5.141601 -1.823731,-2.373047 -5.756836,-4.13086 l -1.296387,-2.9223631 -1.07666,1.516114 q -2.175293,1.3623041 -4.570312,2.8784171 -2.39502,1.516114 -2.878418,2.636719 m 6.416015,0.65918 -4.658203,-0.04395 2.548828,-2.197265 q 0.65918,-0.549317 1.757813,0.845947 1.098632,1.395264 0.351562,1.395264 m -11.777344,4.284668 0.812989,0.681152 -1.010742,1.208496 -1.2524423,-0.571289 0.725098,-1.230469 0.7250973,-0.08789 z"
       fill-rule="even-odd"
       style="fill:#000000;stroke-width:0"
       inkscape:connector-curvature="0" />
    <path
       inkscape:connector-curvature="0"
       id="path4133"
       d="m 13.270226,37.763609 c 0.335677,-3.276394 2.513573,-6.405258 5.482307,-7.876125 1.155247,-0.572369 1.502849,-0.857133 1.974162,-1.617284 0.314618,-0.507429 0.92749,-1.417558 1.361937,-2.022507 0.748519,-1.042283 0.842376,-1.10687 1.791434,-1.232767 1.302344,-0.172762 2.291287,-0.690106 3.029091,-1.584604 1.147408,-1.391094 1.67416,-3.761567 1.142495,-5.141426 -0.199684,-0.518249 -0.222798,-0.486394 -0.669644,0.922829 -0.832859,2.626591 -2.113711,4.040382 -3.856783,4.257078 -0.490463,0.06097 -1.127324,0.232683 -1.415247,0.381577 -0.453318,0.234426 -0.612257,0.23363 -1.185613,-0.0059 -0.852996,-0.356404 -3.238714,-0.352902 -4.938604,0.0072 -1.559332,0.330372 -2.665542,0.940888 -3.620927,1.998385 -0.627003,0.694018 -0.747967,0.753816 -1.121008,0.554171 -0.408954,-0.218865 -0.399459,-0.239904 0.431124,-0.955254 l 0.849287,-0.731459 -1.523771,-1.570346 c -0.838074,-0.86369 -1.5407092,-1.604098 -1.5614113,-1.64535 -0.020702,-0.04125 -0.335043,0.108801 -0.6985355,0.333452 l -0.6608956,0.408456 -0.064176,-1.240642 -0.064176,-1.240641 3.7182204,-2.43471 c 2.272363,-1.487955 4.1631,-2.881494 4.862288,-3.583677 0.701874,-0.70488 2.249553,-1.844406 4.004238,-2.948242 1.573093,-0.9895997 2.921104,-1.8963187 2.99558,-2.0149304 0.07448,-0.1186118 0.304603,-0.4224472 0.511393,-0.6751899 l 0.375981,-0.4595321 0.593198,1.3347458 c 0.579176,1.3031976 0.627141,1.3526446 2.029315,2.0920306 2.910533,1.534766 4.837847,3.580459 6.472293,6.869834 1.604707,3.229528 1.904945,6.104362 1.393955,13.347457 -0.21941,3.110031 -0.132962,4.937696 0.340461,7.198094 l 0.109823,0.524364 -11.107882,0 -11.107882,0 0.127974,-1.249103 z M 10.988671,20.659958 11.479558,20.040254 11.064979,19.697073 C 10.462177,19.198082 9.7528862,19.35329 9.3322939,20.076219 l -0.3537268,0.607999 0.5350808,0.290087 c 0.7641781,0.41429 0.9249941,0.380017 1.4750231,-0.314347 z m 11.642368,-5.668729 c 0.308206,-0.498687 -1.250258,-2.29294 -1.989418,-2.290409 -0.332374,0.0011 -0.910678,0.391789 -1.821706,1.230582 l -1.334746,1.228915 2.51523,0.0088 c 1.445896,0.0051 2.564296,-0.07057 2.63064,-0.177913 z"
       style="opacity:1;fill:#ffffff;fill-opacity:1;fill-rule:nonzero;stroke:none;stroke-width:5;stroke-miterlimit:4;stroke-dasharray:none;stroke-opacity:1" />
  </g>
</svg>
