<?xml version="1.0" encoding="UTF-8" standalone="no"?>
<svg
   xmlns:dc="http://purl.org/dc/elements/1.1/"
   xmlns:cc="http://creativecommons.org/ns#"
   xmlns:rdf="http://www.w3.org/1999/02/22-rdf-syntax-ns#"
   xmlns:svg="http://www.w3.org/2000/svg"
   xmlns="http://www.w3.org/2000/svg"
   xmlns:sodipodi="http://sodipodi.sourceforge.net/DTD/sodipodi-0.dtd"
   xmlns:inkscape="http://www.inkscape.org/namespaces/inkscape"
   version="1.1"
   id="ludo-svg-node-iy4wkpux"
   width="45"
   height="45"
   viewBox="0 0 45 45"
   style="-webkit-tap-highlight-color: rgba(0, 0, 0, 0); width: 45px; height: 45px;"
   inkscape:version="0.91 r13725"
   sodipodi:docname="wq.svg">
  <metadata
     id="metadata19">
    <rdf:RDF>
      <cc:Work
         rdf:about="">
        <dc:format>image/svg+xml</dc:format>
        <dc:type
           rdf:resource="http://purl.org/dc/dcmitype/StillImage" />
      </cc:Work>
    </rdf:RDF>
  </metadata>
  <defs
     id="defs17" />
  <sodipodi:namedview
     pagecolor="#ffffff"
     bordercolor="#666666"
     borderopacity="1"
     objecttolerance="10"
     gridtolerance="10"
     guidetolerance="10"
     inkscape:pageopacity="0"
     inkscape:pageshadow="2"
     inkscape:window-width="1076"
     inkscape:window-height="650"
     id="namedview15"
     showgrid="false"
     inkscape:zoom="5.2444444"
     inkscape:cx="38.661495"
     inkscape:cy="7.2457624"
     inkscape:window-x="0"
     inkscape:window-y="0"
     inkscape:window-maximized="0"
     inkscape:current-layer="ludo-svg-node-iy4wkpux" />
  <g
     id="g9686"
     transform="translate(-2.5000001e-7,5.376258)">
    <path
       id="ludo-svg-node-iy4wkpxb"
       d="m 22.500008,37.997766 10.50293,0 q -1.164551,-2.856445 -0.94483,-6.152344 -2.19726,-0.856933 -4.68017,-1.483154 -2.482911,-0.626221 -4.877931,-0.626221 -2.417,0 -4.89991,0.626221 -2.48291,0.626221 -4.6582,1.483154 0.19775,3.295899 -0.94482,6.152344 l 10.50293,0 m 0,-9.887695 q 2.43896,0 4.91089,0.582275 2.47192,0.582275 4.84497,1.483154 0,0 0,0 0,0 0,0 0.37353,-2.307129 1.32934,-4.669189 0.95581,-2.362061 2.31812,-4.66919 l -4.83399,3.405762 -2.70263,-13.205566 -5.8667,12.194824 -5.8667,-12.194824 -2.70264,13.205566 -4.8339795,-3.405762 q 1.3403295,2.307129 2.2961395,4.66919 0.95581,2.36206 1.35132,4.669189 0,0 0,0 0,0 0,0 2.37304,-0.900879 4.84497,-1.483154 2.47192,-0.582275 4.91089,-0.582275 m 0,11.513671 -12.8100595,0 Q 12.194827,34.548059 10.953377,29.593225 9.7119175,24.638391 6.5039075,19.716516 q -0.26367,0.04395 -0.41748,0.04395 -1.18652,0 -2.03247,-0.845947 -0.84595,-0.845947 -0.84595,-2.032471 0,-1.186523 0.84595,-2.03247 0.84595,-0.845948 2.03247,-0.845948 1.18653,0 2.03247,0.845948 0.84595,0.845947 0.84595,2.03247 0,0.439453 -0.13184,0.834961 -0.0879,0.307617 -0.32959,0.725098 l 4.3066505,3.054199 2.19726,-10.678711 q -1.40625,-0.681157 -1.582031,-2.2631892 -0.109859,-0.966797 0.63721,-1.999512 0.74707,-1.032715 1.93359,-1.1645506 1.18652,-0.1098633 2.10938,0.6372066 0.92285,0.747071 1.05468,1.933594 0.15381,1.494141 -1.01074,2.5048842 l 4.35059,9.052734 4.35058,-9.052734 q -1.18652,-1.0107432 -1.01074,-2.5048842 0.13184,-1.186523 1.05469,-1.933594 0.92285,-0.7470699 2.10937,-0.6372066 1.18653,0.1318356 1.92261,1.1645506 0.73608,1.032715 0.64819,1.999512 -0.19775,1.5820322 -1.58203,2.2631842 l 2.19727,10.678711 4.30664,-3.054199 q -0.26367,-0.417481 -0.32959,-0.725098 -0.13184,-0.395508 -0.13184,-0.834961 0,-1.186523 0.84595,-2.03247 0.84595,-0.845948 2.032471,-0.845948 1.18652,0 2.032465,0.845948 0.84595,0.845947 0.84595,2.03247 0,1.186524 -0.84595,2.032471 -0.845945,0.845947 -2.032465,0.845947 -0.15381,0 -0.41748,-0.04395 -3.22998,4.921875 -4.46045,9.876709 -1.23047,4.954834 1.27442,10.030517 l -12.81006,0 M 6.0644575,15.519739 q -1.36231,0 -1.36231,1.362304 0,1.362305 1.36231,1.362305 1.38428,0 1.38428,-1.362305 0,-1.362304 -1.38428,-1.362304 M 16.303718,6.8625108 q -1.36231,0 -1.36231,1.362306 0,1.362304 1.36231,1.362304 1.3623,0 1.3623,-1.362304 0,-1.362306 -1.3623,-1.362306 m -3.33985,25.6420912 2.61475,1.582031 -2.94434,1.889649 q 0.41748,-1.889649 0.32959,-3.47168 m 25.97168,-16.984863 q -1.38427,0 -1.38427,1.362304 0,1.362305 1.38427,1.362305 1.362305,0 1.362305,-1.362305 0,-1.362304 -1.362305,-1.362304 M 28.696298,6.8625108 q -1.36231,0 -1.36231,1.362306 0,1.362304 1.36231,1.362304 1.3623,0 1.3623,-1.362304 0,-1.362306 -1.3623,-1.362306 m 3.33984,25.6420912 -2.61475,1.582031 2.94434,1.889649 q -0.43945,-1.889649 -0.32959,-3.47168 m -12.59033,1.032715 3.0542,-1.823731 3.0542,1.889649 -3.0542,1.845703 -3.0542,-1.911621 z"
       inkscape:connector-curvature="0" />
    <path
       inkscape:connector-curvature="0"
       id="path4141"
       d="M 12.511077,28.667693 C 12.149932,27.135799 10.82053,23.738647 10.025668,22.316484 9.7477351,21.819209 9.5430393,21.389971 9.5707883,21.362624 c 0.027749,-0.02735 1.0199467,0.639353 2.2048837,1.481556 1.184938,0.842204 2.178914,1.499714 2.208836,1.461135 0.02992,-0.03858 0.636359,-2.944616 1.347636,-6.457857 0.711277,-3.513242 1.309857,-6.407176 1.330179,-6.430964 0.02032,-0.02379 1.311892,2.614717 2.870158,5.863347 1.558265,3.24863 2.891737,5.9066 2.963271,5.9066 0.07153,0 1.40591,-2.655379 2.965281,-5.900841 1.559372,-3.245463 2.850579,-5.883969 2.869349,-5.863348 0.01877,0.02062 0.615985,2.911964 1.327143,6.425206 0.711159,3.513241 1.315856,6.418861 1.343771,6.456932 0.02792,0.03807 1.020669,-0.616889 2.206114,-1.455466 1.185446,-0.838576 2.174392,-1.508529 2.197657,-1.488784 0.02327,0.01975 -0.289503,0.674705 -0.695041,1.455466 -0.904189,1.740785 -1.995834,4.661211 -2.299944,6.152934 -0.187457,0.919522 -0.280945,1.087521 -0.543632,0.976932 -0.908078,-0.382294 -3.398652,-1.091683 -5.084192,-1.448127 -2.604674,-0.550814 -5.975835,-0.550814 -8.580508,0 -1.67378,0.353958 -4.185927,1.068512 -5.064254,1.440475 -0.239388,0.101379 -0.361417,-0.146048 -0.626419,-1.270127 z"
       style="opacity:0.65;fill:#ffffff;fill-opacity:1;fill-rule:nonzero;stroke:none;stroke-width:5;stroke-miterlimit:4;stroke-dasharray:none;stroke-opacity:1" />
    <path
       inkscape:connector-curvature="0"
       id="path4143"
       d="M 12.511077,28.667693 C 12.149932,27.135799 10.82053,23.738647 10.025668,22.316484 9.7477351,21.819209 9.5430393,21.390212 9.5707883,21.36316 c 0.027749,-0.02705 1.0223947,0.6372 2.2103237,1.476117 1.187928,0.838917 2.181303,1.496187 2.207498,1.460598 0.0262,-0.03559 0.629936,-2.939176 1.341645,-6.452417 0.711709,-3.513242 1.311915,-6.408199 1.33379,-6.433238 0.02188,-0.02504 1.314941,2.613466 2.873478,5.863347 1.558537,3.249881 2.890277,5.908874 2.959421,5.908874 0.06914,0 1.400889,-2.656765 2.959432,-5.903922 1.558544,-3.247157 2.851018,-5.885664 2.872166,-5.863348 0.02115,0.02232 0.613567,2.872143 1.316486,6.332948 0.702919,3.460805 1.333112,6.350698 1.400429,6.421985 0.06732,0.07129 1.06625,-0.543544 2.219852,-1.366288 1.153602,-0.822745 2.120162,-1.473303 2.147911,-1.445685 0.02775,0.02762 -0.176947,0.457078 -0.45488,0.954353 -0.81919,1.465691 -2.139443,4.861147 -2.4745,6.363977 -0.257884,1.156684 -0.364069,1.372023 -0.622764,1.262949 -0.91734,-0.386782 -3.402429,-1.09064 -5.078818,-1.438486 -2.38821,-0.495546 -5.802734,-0.536495 -8.123369,-0.09742 -1.425943,0.269796 -4.638283,1.160785 -5.521393,1.531438 -0.239167,0.100382 -0.361661,-0.148205 -0.626419,-1.27125 z"
       style="opacity:1;fill:#ffffff;fill-opacity:1;fill-rule:nonzero;stroke:none;stroke-width:5;stroke-miterlimit:4;stroke-dasharray:none;stroke-opacity:1" />
    <path
       inkscape:connector-curvature="0"
       id="path4145"
       d="m 12.283686,37.534958 c 0.071,-0.183528 0.179159,-0.58189 0.240352,-0.88525 0.08717,-0.432131 0.435225,-0.757765 1.60741,-1.50386 0.822882,-0.523764 1.495397,-1.004903 1.494479,-1.0692 -9.19e-4,-0.0643 -0.602495,-0.460122 -1.336836,-0.879614 -0.766682,-0.437966 -1.31398,-0.87393 -1.285406,-1.023924 0.06486,-0.340462 1.432058,-0.867902 4.149336,-1.600732 2.035271,-0.548898 2.418811,-0.591382 5.338983,-0.591382 2.920171,0 3.303712,0.04248 5.338983,0.591382 2.717277,0.73283 4.084478,1.26027 4.149335,1.600732 0.02857,0.149987 -0.518697,0.585979 -1.28526,1.023924 -0.734261,0.419492 -1.314386,0.8211 -1.289166,0.892463 0.02522,0.07136 0.698108,0.554697 1.495307,1.074075 1.115892,0.727005 1.474835,1.070133 1.55974,1.491011 0.06066,0.300679 0.168379,0.696847 0.239379,0.880375 0.121971,0.31528 -0.441104,0.333686 -10.208318,0.333686 -9.767213,0 -10.330291,-0.01841 -10.208318,-0.333686 z m 11.78841,-2.907839 c 0.80612,-0.471928 1.439987,-0.93854 1.408592,-1.036916 -0.03139,-0.09838 -0.712812,-0.589958 -1.514263,-1.092404 l -1.457182,-0.913537 -1.528954,0.901725 c -0.840925,0.495949 -1.5082,0.970857 -1.482834,1.055353 0.055,0.18321 2.852874,2.024297 3.00409,1.976784 0.05768,-0.01812 0.764432,-0.419077 1.570551,-0.891005 z"
       style="opacity:1;fill:#ffffff;fill-opacity:1;fill-rule:nonzero;stroke:none;stroke-width:5;stroke-miterlimit:4;stroke-dasharray:none;stroke-opacity:1" />
    <path
       inkscape:connector-curvature="0"
       id="path4147"
       d="m 38.363171,18.031168 c -0.563463,-0.226369 -0.85432,-0.989412 -0.616039,-1.616138 0.244525,-0.643149 0.9512,-0.951392 1.648888,-0.719226 1.002635,0.333642 1.107694,1.876596 0.157262,2.309642 -0.565129,0.25749 -0.610754,0.258476 -1.190111,0.02572 z"
       style="opacity:1;fill:#ffffff;fill-opacity:1;fill-rule:nonzero;stroke:none;stroke-width:5;stroke-miterlimit:4;stroke-dasharray:none;stroke-opacity:1" />
    <path
       inkscape:connector-curvature="0"
       id="path4149"
       d="m 27.765201,9.1089267 c -0.418856,-0.4628302 -0.401355,-1.4213393 0.03313,-1.8145433 0.46283,-0.4188556 1.421339,-0.4013546 1.814543,0.033131 0.399221,0.4411347 0.407903,1.4385063 0.01593,1.8304761 -0.409917,0.4099168 -1.473578,0.3819135 -1.863607,-0.049064 z"
       style="opacity:1;fill:#ffffff;fill-opacity:1;fill-rule:nonzero;stroke:none;stroke-width:5;stroke-miterlimit:4;stroke-dasharray:none;stroke-opacity:1" />
    <path
       inkscape:connector-curvature="0"
       id="path4151"
       d="m 15.371133,9.1089267 c -0.418856,-0.4628302 -0.401355,-1.4213393 0.03313,-1.8145433 0.46283,-0.4188556 1.421339,-0.4013546 1.814543,0.033131 0.399221,0.4411347 0.407903,1.4385063 0.01593,1.8304761 -0.409917,0.4099168 -1.473578,0.3819135 -1.863607,-0.049064 z"
       style="opacity:1;fill:#ffffff;fill-opacity:1;fill-rule:nonzero;stroke:none;stroke-width:5;stroke-miterlimit:4;stroke-dasharray:none;stroke-opacity:1" />
    <path
       inkscape:connector-curvature="0"
       id="path4153"
       d="m 5.2452434,17.779049 c -0.8423782,-0.842378 -0.5421416,-1.919331 0.5974682,-2.143126 0.4909824,-0.09642 0.7006332,-0.02565 1.0963983,0.37012 0.5723653,0.572365 0.6203542,1.072294 0.1556482,1.621482 -0.5550298,0.655932 -1.2852798,0.715759 -1.8495147,0.151524 z"
       style="opacity:1;fill:#ffffff;fill-opacity:1;fill-rule:nonzero;stroke:none;stroke-width:5;stroke-miterlimit:4;stroke-dasharray:none;stroke-opacity:1" />
  </g>
</svg>
